<?xml version="1.0" encoding="utf-8"?>
<!-- Generator: Adobe Illustrator 22.1.0, SVG Export Plug-In . SVG Version: 6.00 Build 0)  -->
<svg version="1.1" id="Layer_1" xmlns="http://www.w3.org/2000/svg" xmlns:xlink="http://www.w3.org/1999/xlink" x="0px" y="0px"
	 viewBox="0 0 635 152" style="enable-background:new 0 0 635 152;" xml:space="preserve">
<style type="text/css">
	.st0{fill:#ED1C24;}
	.st1{fill:#FFFFFF;}
</style>
<g>
	<path class="st0" d="M216.8,61.7v25.6c0,3.5,0.8,6,2.3,7.4c1.5,1.5,3.6,2.2,6.3,2.2c1.8,0,3.5-0.3,5.4-0.8v8.3
		c-2.2,0.7-4.8,1.1-7.6,1.1c-5.3,0-9.3-1.5-12.2-4.5c-2.9-3-4.4-7.3-4.4-13V61.7h-9.9v-7.9h9.9V41.1l10.2-3.5v16.3h14.1v7.9H216.8z"
		/>
	<path class="st0" d="M270.6,53.3l-0.2,9.3c-1.8-0.7-3.8-1-6-1c-4.7,0-8.1,1.4-10.5,4.2c-2.3,2.8-3.5,6.3-3.5,10.6v28.4h-10.1V68.2
		c0-5.3-0.3-10.1-0.8-14.4h9.5l0.9,9.2c1.3-3.4,3.4-6,6.3-7.7c2.8-1.8,6-2.7,9.5-2.7C267.3,52.6,268.9,52.8,270.6,53.3z"/>
	<path class="st0" d="M277.5,31.6h11.8v10.7h-11.8V31.6z M278.4,104.8v-51h10.1v51H278.4z"/>
	<path class="st0" d="M342.3,56c3.4,2.2,6.1,5.4,8,9.4s2.9,8.7,2.9,14s-0.9,9.9-2.8,13.8c-1.9,3.9-4.6,7-8,9.2
		c-3.4,2.2-7.4,3.2-11.8,3.2c-3.9,0-7.3-0.8-10.3-2.5c-2.9-1.7-5.1-4-6.6-7.1v30.8h-10.1V68.2c0-5.3-0.3-10.1-0.8-14.4h9.5l1,9.4
		c1.3-3.4,3.5-6,6.6-7.8c3-1.9,6.6-2.8,10.7-2.8C334.9,52.6,338.8,53.7,342.3,56z M338.9,92.7c2.6-3.2,3.8-7.6,3.8-13.4
		c0-5.8-1.3-10.3-3.8-13.6c-2.6-3.3-6.1-4.9-10.7-4.9c-4.7,0-8.3,1.6-10.8,4.8c-2.5,3.2-3.7,7.7-3.7,13.6s1.3,10.4,3.8,13.6
		c2.5,3.2,6.1,4.8,10.8,4.8C332.8,97.5,336.4,95.9,338.9,92.7z"/>
	<path d="M361.9,99.1l3-7.4c5.3,4,11.4,6.1,18.3,6.1c3.5,0,6.2-0.6,8-1.8c1.8-1.2,2.7-2.9,2.7-5c0-1.8-0.6-3.3-1.9-4.3
		c-1.2-1-3.4-1.9-6.3-2.7l-8.5-2c-4.5-0.9-7.8-2.6-10.2-5c-2.3-2.4-3.5-5.4-3.5-9c0-4.6,1.8-8.3,5.5-11.1c3.7-2.8,8.6-4.3,14.6-4.3
		c3.6,0,7.1,0.6,10.4,1.7c3.3,1.1,6.1,2.8,8.4,4.9l-3.1,7.2c-4.9-3.9-10.1-5.9-15.6-5.9c-3.3,0-5.9,0.6-7.7,1.9
		c-1.8,1.2-2.7,3-2.7,5.2c0,1.8,0.6,3.2,1.7,4.3c1.1,1.1,3,1.9,5.5,2.5l8.7,2.1c4.9,1.1,8.5,2.8,10.8,5.1s3.5,5.3,3.5,9.1
		c0,4.6-1.8,8.2-5.5,10.9c-3.7,2.7-8.7,4-15,4C374,105.6,367,103.4,361.9,99.1z"/>
	<path d="M424.4,102.3c-3.8-2.2-6.7-5.2-8.8-9.2c-2.1-4-3.1-8.6-3.1-14c0-5.3,1-10,3.1-14c2.1-4,5-7.1,8.8-9.3
		c3.8-2.2,8.2-3.2,13.2-3.2c4.9,0,9.3,1.1,13.1,3.2c3.8,2.2,6.7,5.2,8.8,9.3c2.1,4,3.1,8.7,3.1,14c0,5.3-1,10-3.1,14
		c-2.1,4-5,7.1-8.8,9.2c-3.8,2.2-8.1,3.2-13.1,3.2C432.5,105.6,428.1,104.5,424.4,102.3z M448.2,92.8c2.5-3.1,3.7-7.7,3.7-13.7
		c0-5.9-1.3-10.4-3.8-13.6c-2.5-3.2-6.1-4.8-10.7-4.8c-4.7,0-8.3,1.6-10.8,4.8c-2.6,3.2-3.8,7.7-3.8,13.6c0,6,1.3,10.6,3.8,13.7
		c2.5,3.1,6.1,4.7,10.8,4.7C442.1,97.5,445.7,95.9,448.2,92.8z"/>
	<path d="M504.6,53.3l-0.2,9.3c-1.8-0.7-3.8-1-6-1c-4.7,0-8.1,1.4-10.5,4.2c-2.3,2.8-3.5,6.3-3.5,10.6v28.4h-10.1V68.2
		c0-5.3-0.3-10.1-0.8-14.4h9.5L484,63c1.3-3.4,3.4-6,6.3-7.7c2.8-1.8,6-2.7,9.5-2.7C501.3,52.6,502.9,52.8,504.6,53.3z"/>
	<path d="M525.7,61.7v25.6c0,3.5,0.8,6,2.3,7.4c1.5,1.5,3.6,2.2,6.3,2.2c1.8,0,3.5-0.3,5.4-0.8v8.3c-2.2,0.7-4.8,1.1-7.6,1.1
		c-5.3,0-9.3-1.5-12.2-4.5c-2.9-3-4.4-7.3-4.4-13V61.7h-9.9v-7.9h9.9V41.1l10.2-3.5v16.3h14.1v7.9H525.7z"/>
	<path d="M592.7,79.5h-36.4c0.3,11.9,5.8,17.9,16.3,17.9c5.9,0,11.2-1.9,16.1-5.8l3.1,7.3c-2.3,2-5.2,3.6-8.8,4.8
		c-3.5,1.2-7.1,1.8-10.7,1.8c-8.2,0-14.6-2.3-19.2-7c-4.7-4.7-7-11.1-7-19.3c0-5.2,1-9.8,3.1-13.9c2.1-4,4.9-7.2,8.7-9.4
		c3.7-2.2,7.9-3.3,12.7-3.3c6.9,0,12.3,2.2,16.2,6.7c3.9,4.5,5.9,10.6,5.9,18.5V79.5z M561.3,63.6c-2.4,2.3-4,5.6-4.7,9.8h27
		c-0.4-4.3-1.7-7.6-3.9-9.9c-2.2-2.3-5.2-3.4-9-3.4C566.9,60.2,563.7,61.4,561.3,63.6z"/>
	<path d="M634.7,53.3l-0.2,9.3c-1.8-0.7-3.8-1-6-1c-4.7,0-8.1,1.4-10.5,4.2c-2.3,2.8-3.5,6.3-3.5,10.6v28.4h-10.1V68.2
		c0-5.3-0.3-10.1-0.8-14.4h9.5L614,63c1.3-3.4,3.4-6,6.3-7.7c2.8-1.8,6-2.7,9.5-2.7C631.4,52.6,633,52.8,634.7,53.3z"/>
</g>
<circle class="st0" cx="75.9" cy="76.2" r="75.9"/>
<path class="st1" d="M119,34L33,70v4.7l32.7,12.7L78.3,120H83L119,34z"/>
</svg>
